<svg data-v-1084b650="" xmlns="http://www.w3.org/2000/svg" viewBox="0 0 300 300"><!----> <!----> <rect data-v-1084b650="" fill="#ffffff" x="0" y="0" width="300px" height="300px" class="logo-background-square"></rect> <!----> <linearGradient data-v-1084b650="" gradientTransform="rotate(25)" id="54aa3e4d-f139-3036-9d3a-ed8e3028efc3" x1="0%" y1="0%" x2="100%" y2="0%"><stop data-v-1084b650="" offset="0%" style="stop-color: rgb(81, 6, 255); stop-opacity: 1;"></stop> <stop data-v-1084b650="" offset="100%" style="stop-color: rgb(97, 203, 242); stop-opacity: 1;"></stop></linearGradient> <g data-v-1084b650="" id="b2a63ff8-26ff-34a0-a910-8a4e640ebde5" fill="url(#54aa3e4d-f139-3036-9d3a-ed8e3028efc3)" stroke="none" transform="matrix(0.7999999999999998,0,0,0.7999999999999998,30.00009765625002,33.26040039062502)"><svg xmlns="http://www.w3.org/2000/svg" xmlns:xlink="http://www.w3.org/1999/xlink" version="1.1" x="0px" y="0px" viewBox="0 0 100 100" enable-background="new 0 0 100 100" xml:space="preserve"><path d="M28.725,20.123c-0.252,0.068-0.512,0.115-0.754,0.202c0.238-0.087,0.502-0.139,0.75-0.202  C28.721,20.123,28.721,20.123,28.725,20.123z"></path><path fill="#000000" d="M25.355,21.718c0.061-0.046,0.131-0.076,0.189-0.12c0.004,0,0.004-0.004,0.004-0.004  C25.486,21.638,25.42,21.672,25.355,21.718z"></path><path fill="#000000" d="M78.994,25.908c0.002,0.012,0.002,0.023,0.012,0.037c0.208,0.51,0.396,1.032,0.518,1.578  C79.398,26.967,79.207,26.427,78.994,25.908z"></path><path fill="#000000" d="M28.725,20.123c-0.252,0.068-0.512,0.115-0.754,0.202c0.238-0.087,0.502-0.139,0.75-0.202  C28.721,20.123,28.721,20.123,28.725,20.123z"></path><path fill="#000000" d="M25.355,21.719c0.061-0.048,0.131-0.076,0.189-0.121c0.004,0,0.004-0.004,0.004-0.004  C25.486,21.638,25.42,21.671,25.355,21.719z"></path><path fill="#000000" d="M78.994,25.908c0.002,0.012,0.002,0.023,0.012,0.037c0.208,0.509,0.396,1.03,0.518,1.577  C79.398,26.968,79.207,26.427,78.994,25.908z"></path><path fill-rule="evenodd" clip-rule="evenodd" fill="#000000" d="M25.55,26.581c0,1.474-1.193,2.67-2.666,2.67h-5.085  c-1.473,0-2.667-1.196-2.667-2.67v-9.135c0-1.473,1.194-2.669,2.667-2.669h5.085c1.473,0,2.666,1.196,2.666,2.669V26.581z"></path><path fill-rule="evenodd" clip-rule="evenodd" fill="#000000" d="M66.74,26.581c0,1.474-1.195,2.67-2.671,2.67h-5.08  c-1.476,0-2.667-1.196-2.667-2.67v-9.135c0-1.473,1.191-2.669,2.667-2.669h5.08c1.476,0,2.671,1.196,2.671,2.669V26.581z"></path><path fill-rule="evenodd" clip-rule="evenodd" fill="#000000" d="M10.997,36.776h59.877c1.473,0,2.669,1.194,2.669,2.667  l3.328-3.188V24.973c0-1.477-1.196-2.668-2.672-2.668h-5.667v5.353c0,1.981-1.602,3.585-3.586,3.585h-6.839  c-1.978,0-3.583-1.604-3.583-3.585v-5.353H27.346v5.353c0,1.981-1.605,3.585-3.587,3.585h-6.835c-1.981,0-3.588-1.604-3.588-3.585  v-5.353H7.671C6.195,22.305,5,23.496,5,24.973v54.87c0,1.473,1.195,2.663,2.671,2.663h66.528c1.476,0,2.672-1.189,2.672-2.663  V58.159v-1.13l-3.328,3.4v16.228c0,1.473-1.196,2.667-2.669,2.667H10.997c-1.472,0-2.667-1.194-2.667-2.667V39.443  C8.33,37.97,9.525,36.776,10.997,36.776z"></path><g><path fill-rule="evenodd" clip-rule="evenodd" fill="#000000" d="M25.945,53.382c0,1.474-1.194,2.674-2.667,2.674h-6.821   c-1.474,0-2.667-1.2-2.667-2.674v-6.818c0-1.473,1.193-2.668,2.667-2.668h6.821c1.473,0,2.667,1.195,2.667,2.668V53.382z"></path><path fill-rule="evenodd" clip-rule="evenodd" fill="#000000" d="M41.763,53.382c0,1.474-1.196,2.674-2.672,2.674h-6.819   c-1.473,0-2.669-1.2-2.669-2.674v-6.818c0-1.473,1.196-2.668,2.669-2.668h6.819c1.476,0,2.672,1.195,2.672,2.668V53.382z"></path><path fill-rule="evenodd" clip-rule="evenodd" fill="#000000" d="M25.945,69.878c0,1.475-1.194,2.671-2.667,2.671h-6.821   c-1.474,0-2.667-1.196-2.667-2.671v-6.82c0-1.473,1.193-2.669,2.667-2.669h6.821c1.473,0,2.667,1.196,2.667,2.669V69.878z"></path><path fill-rule="evenodd" clip-rule="evenodd" fill="#000000" d="M41.763,69.878c0,1.475-1.196,2.671-2.672,2.671h-6.819   c-1.473,0-2.669-1.196-2.669-2.671v-6.82c0-1.473,1.196-2.669,2.669-2.669h6.819c1.476,0,2.672,1.196,2.672,2.669V69.878z"></path></g><path fill="#000000" d="M93.308,28.787c-2.095-1.89-5.338-1.726-7.236,0.381l-15.39,17.036l0.788,0.713L56.672,63.301  c-0.599,0.668-3.649,5.122-2.981,5.715l0.764,0.688l-1.324,2.542l1.059,0.954l2.424-1.546l0.727,0.656  c0.659,0.603,4.775-2.889,5.369-3.55l14.8-16.383l0.777,0.701l15.389-17.048C95.572,33.931,95.416,30.691,93.308,28.787z"></path><path fill-rule="evenodd" clip-rule="evenodd" fill="#000000" d="M25.55,26.581c0,1.474-1.193,2.67-2.666,2.67h-5.085  c-1.473,0-2.667-1.196-2.667-2.67v-9.135c0-1.473,1.194-2.669,2.667-2.669h5.085c1.473,0,2.666,1.196,2.666,2.669V26.581z"></path><path fill-rule="evenodd" clip-rule="evenodd" fill="#000000" d="M66.74,26.581c0,1.474-1.195,2.67-2.671,2.67h-5.08  c-1.476,0-2.667-1.196-2.667-2.67v-9.135c0-1.473,1.191-2.669,2.667-2.669h5.08c1.476,0,2.671,1.196,2.671,2.669V26.581z"></path><path fill-rule="evenodd" clip-rule="evenodd" fill="#000000" d="M10.997,36.776h59.872c1.478,0,2.674,1.194,2.674,2.667  l3.328-3.188V24.973c0-1.477-1.196-2.668-2.674-2.668h-5.665v5.353c0,1.981-1.602,3.585-3.586,3.585h-6.839  c-1.978,0-3.583-1.604-3.583-3.585v-5.353H27.346v5.353c0,1.981-1.605,3.585-3.587,3.585h-6.835c-1.981,0-3.588-1.604-3.588-3.585  v-5.353H7.671C6.195,22.305,5,23.496,5,24.973v54.87c0,1.473,1.195,2.663,2.671,2.663h66.526c1.478,0,2.674-1.189,2.674-2.663  V57.029l-3.328,3.4v16.228c0,1.473-1.196,2.667-2.674,2.667H10.997c-1.472,0-2.667-1.194-2.667-2.667V39.443  C8.33,37.97,9.525,36.776,10.997,36.776z"></path><g><path fill-rule="evenodd" clip-rule="evenodd" fill="#000000" d="M25.945,53.382c0,1.474-1.194,2.674-2.667,2.674h-6.821   c-1.474,0-2.667-1.2-2.667-2.674v-6.818c0-1.473,1.193-2.668,2.667-2.668h6.821c1.473,0,2.667,1.195,2.667,2.668V53.382z"></path><path fill-rule="evenodd" clip-rule="evenodd" fill="#000000" d="M41.763,53.382c0,1.474-1.196,2.674-2.672,2.674h-6.819   c-1.473,0-2.669-1.2-2.669-2.674v-6.818c0-1.473,1.196-2.668,2.669-2.668h6.819c1.476,0,2.672,1.195,2.672,2.668V53.382z"></path><path fill-rule="evenodd" clip-rule="evenodd" fill="#000000" d="M25.945,69.878c0,1.475-1.194,2.671-2.667,2.671h-6.821   c-1.474,0-2.667-1.196-2.667-2.671v-6.82c0-1.473,1.193-2.669,2.667-2.669h6.821c1.473,0,2.667,1.196,2.667,2.669V69.878z"></path><path fill-rule="evenodd" clip-rule="evenodd" fill="#000000" d="M41.763,69.878c0,1.475-1.196,2.671-2.672,2.671h-6.819   c-1.473,0-2.669-1.196-2.669-2.671v-6.82c0-1.473,1.196-2.669,2.669-2.669h6.819c1.476,0,2.672,1.196,2.672,2.669V69.878z"></path></g></svg></g></svg>